<?xml version="1.0" encoding="UTF-8" standalone="no"?>
<!-- This Source Code Form is subject to the terms of the Mozilla Public
   - License, v. 2.0. If a copy of the MPL was not distributed with this
   - file, You can obtain one at http://mozilla.org/MPL/2.0/. -->

<svg
   xmlns:dc="http://purl.org/dc/elements/1.1/"
   xmlns:cc="http://creativecommons.org/ns#"
   xmlns:rdf="http://www.w3.org/1999/02/22-rdf-syntax-ns#"
   xmlns:svg="http://www.w3.org/2000/svg"
   xmlns="http://www.w3.org/2000/svg"
   xmlns:xlink="http://www.w3.org/1999/xlink"
   xmlns:sodipodi="http://sodipodi.sourceforge.net/DTD/sodipodi-0.dtd"
   xmlns:inkscape="http://www.inkscape.org/namespaces/inkscape"
   width="300"
   height="200"
   viewBox="0 0 300 200"
   version="1.1"
   id="svg96"
   sodipodi:docname="404.svg"
   inkscape:version="0.92.4 (5da689c313, 2019-01-14)">
  <metadata
     id="metadata100">
    <rdf:RDF>
      <cc:Work
         rdf:about="">
        <dc:format>image/svg+xml</dc:format>
        <dc:type
           rdf:resource="http://purl.org/dc/dcmitype/StillImage" />
        <dc:title></dc:title>
      </cc:Work>
    </rdf:RDF>
  </metadata>
  <sodipodi:namedview
     pagecolor="#ffffff"
     bordercolor="#666666"
     borderopacity="1"
     objecttolerance="10"
     gridtolerance="10"
     guidetolerance="10"
     inkscape:pageopacity="0"
     inkscape:pageshadow="2"
     inkscape:window-width="1920"
     inkscape:window-height="1014"
     id="namedview98"
     showgrid="false"
     inkscape:zoom="1.1125147"
     inkscape:cx="7.3705233"
     inkscape:cy="185.71264"
     inkscape:window-x="0"
     inkscape:window-y="0"
     inkscape:window-maximized="1"
     inkscape:current-layer="svg96" />
  <defs
     id="defs12">
    <linearGradient
       id="a"
       x1="-300.021"
       y1="-272.73599"
       x2="547.138"
       y2="574.42297"
       gradientUnits="userSpaceOnUse">
      <stop
         offset="0"
         stop-color="#ccfbff"
         id="stop2" />
      <stop
         offset="1"
         stop-color="#c9e4ff"
         id="stop4" />
    </linearGradient>
    <linearGradient
       id="b"
       x1="-18.672001"
       y1="23.780001"
       x2="279.80499"
       y2="322.25601"
       gradientUnits="userSpaceOnUse">
      <stop
         offset="0"
         stop-color="#00c8d7"
         id="stop7" />
      <stop
         offset="1"
         stop-color="#0a84ff"
         id="stop9" />
    </linearGradient>
    <linearGradient
       inkscape:collect="always"
       xlink:href="#a"
       id="linearGradient945"
       gradientUnits="userSpaceOnUse"
       x1="-300.021"
       y1="-272.73599"
       x2="547.138"
       y2="574.42297" />
    <linearGradient
       inkscape:collect="always"
       xlink:href="#a"
       id="linearGradient947"
       gradientUnits="userSpaceOnUse"
       x1="-300.021"
       y1="-272.73599"
       x2="547.138"
       y2="574.42297" />
    <linearGradient
       inkscape:collect="always"
       xlink:href="#a"
       id="linearGradient949"
       gradientUnits="userSpaceOnUse"
       x1="-300.021"
       y1="-272.73599"
       x2="547.138"
       y2="574.42297" />
    <linearGradient
       inkscape:collect="always"
       xlink:href="#a"
       id="linearGradient951"
       gradientUnits="userSpaceOnUse"
       x1="-300.021"
       y1="-272.73599"
       x2="547.138"
       y2="574.42297" />
    <linearGradient
       inkscape:collect="always"
       xlink:href="#a"
       id="linearGradient953"
       gradientUnits="userSpaceOnUse"
       x1="-300.021"
       y1="-272.73599"
       x2="547.138"
       y2="574.42297" />
    <linearGradient
       inkscape:collect="always"
       xlink:href="#a"
       id="linearGradient955"
       gradientUnits="userSpaceOnUse"
       x1="-300.021"
       y1="-272.73599"
       x2="547.138"
       y2="574.42297" />
    <linearGradient
       inkscape:collect="always"
       xlink:href="#a"
       id="linearGradient957"
       gradientUnits="userSpaceOnUse"
       x1="-300.021"
       y1="-272.73599"
       x2="547.138"
       y2="574.42297" />
    <linearGradient
       inkscape:collect="always"
       xlink:href="#a"
       id="linearGradient959"
       gradientUnits="userSpaceOnUse"
       x1="-300.021"
       y1="-272.73599"
       x2="547.138"
       y2="574.42297" />
    <linearGradient
       inkscape:collect="always"
       xlink:href="#a"
       id="linearGradient961"
       gradientUnits="userSpaceOnUse"
       x1="-300.021"
       y1="-272.73599"
       x2="547.138"
       y2="574.42297" />
    <linearGradient
       inkscape:collect="always"
       xlink:href="#a"
       id="linearGradient963"
       gradientUnits="userSpaceOnUse"
       x1="-300.021"
       y1="-272.73599"
       x2="547.138"
       y2="574.42297" />
    <linearGradient
       inkscape:collect="always"
       xlink:href="#b"
       id="linearGradient965"
       gradientUnits="userSpaceOnUse"
       x1="-18.672001"
       y1="23.780001"
       x2="279.80499"
       y2="322.25601" />
    <linearGradient
       inkscape:collect="always"
       xlink:href="#b"
       id="linearGradient967"
       gradientUnits="userSpaceOnUse"
       x1="-18.672001"
       y1="23.780001"
       x2="279.80499"
       y2="322.25601" />
    <linearGradient
       inkscape:collect="always"
       xlink:href="#b"
       id="linearGradient969"
       gradientUnits="userSpaceOnUse"
       x1="-18.672001"
       y1="23.780001"
       x2="279.80499"
       y2="322.25601" />
    <linearGradient
       inkscape:collect="always"
       xlink:href="#b"
       id="linearGradient971"
       gradientUnits="userSpaceOnUse"
       x1="-18.672001"
       y1="23.780001"
       x2="279.80499"
       y2="322.25601" />
    <linearGradient
       inkscape:collect="always"
       xlink:href="#b"
       id="linearGradient973"
       gradientUnits="userSpaceOnUse"
       x1="-18.672001"
       y1="23.780001"
       x2="279.80499"
       y2="322.25601" />
    <linearGradient
       inkscape:collect="always"
       xlink:href="#b"
       id="linearGradient975"
       gradientUnits="userSpaceOnUse"
       x1="-18.672001"
       y1="23.780001"
       x2="279.80499"
       y2="322.25601" />
    <linearGradient
       inkscape:collect="always"
       xlink:href="#b"
       id="linearGradient977"
       gradientUnits="userSpaceOnUse"
       x1="-18.672001"
       y1="23.780001"
       x2="279.80499"
       y2="322.25601" />
    <linearGradient
       inkscape:collect="always"
       xlink:href="#b"
       id="linearGradient979"
       gradientUnits="userSpaceOnUse"
       x1="-18.672001"
       y1="23.780001"
       x2="279.80499"
       y2="322.25601" />
    <linearGradient
       inkscape:collect="always"
       xlink:href="#b"
       id="linearGradient981"
       gradientUnits="userSpaceOnUse"
       x1="-18.672001"
       y1="23.780001"
       x2="279.80499"
       y2="322.25601" />
    <linearGradient
       inkscape:collect="always"
       xlink:href="#b"
       id="linearGradient983"
       gradientUnits="userSpaceOnUse"
       x1="-18.672001"
       y1="23.780001"
       x2="279.80499"
       y2="322.25601" />
    <linearGradient
       inkscape:collect="always"
       xlink:href="#b"
       id="linearGradient985"
       gradientUnits="userSpaceOnUse"
       x1="-18.672001"
       y1="23.780001"
       x2="279.80499"
       y2="322.25601" />
    <linearGradient
       inkscape:collect="always"
       xlink:href="#b"
       id="linearGradient987"
       gradientUnits="userSpaceOnUse"
       x1="-18.672001"
       y1="23.780001"
       x2="279.80499"
       y2="322.25601" />
    <linearGradient
       inkscape:collect="always"
       xlink:href="#b"
       id="linearGradient989"
       gradientUnits="userSpaceOnUse"
       x1="-18.672001"
       y1="23.780001"
       x2="279.80499"
       y2="322.25601" />
    <linearGradient
       inkscape:collect="always"
       xlink:href="#b"
       id="linearGradient991"
       gradientUnits="userSpaceOnUse"
       x1="-18.672001"
       y1="23.780001"
       x2="279.80499"
       y2="322.25601" />
  </defs>
  <g
     id="g943"
     transform="translate(3.956,-76.461495)">
    <path
       id="path14"
       d="m 224.245,144.067 h -10.733 c 0.136,0.343 0.274,0.674 0.41,1 h 10.323 a 0.5,0.5 0 0 0 0,-1 z m 2.454,-11.821 a 0.5,0.5 0 0 0 -0.5,-0.5 h -20.26 c 0.373,0.357 0.727,0.688 1.065,1 h 19.2 a 0.5,0.5 0 0 0 0.496,-0.5 z m 8.546,11.821 h -3 a 0.5,0.5 0 1 0 0,1 h 3 a 0.5,0.5 0 0 0 0,-1 z m 5,0 h -1 a 0.5,0.5 0 1 0 0,1 h 1 a 0.5,0.5 0 0 0 0,-1 z m -3.3,-6.66 h -25.78 a 12.767,12.767 0 0 1 0.862,2 h 24.918 a 1,1 0 0 0 0,-2 z m 20.422,6.66 h -8.122 a 0.5,0.5 0 1 0 0,1 h 8.122 a 0.5,0.5 0 0 0 0,-1 z"
       inkscape:connector-curvature="0"
       style="fill:#eaeaee" />
    <path
       id="path20"
       d="M 102.31,121.507 H 60.818 a 1,1 0 0 0 0,2 h 41.492 a 1,1 0 1 0 0,-2 z M 70.336,117.6 H 82.1 a 0.5,0.5 0 0 0 0,-1 H 70.336 a 0.5,0.5 0 0 0 0,1 z"
       inkscape:connector-curvature="0"
       style="fill:#eaeaee" />
    <path
       id="path22"
       d="m 111.457,174.8 h -78.3 a 1,1 0 0 0 0,2 h 78.3 a 1,1 0 1 0 0,-2 z m -26.742,-3.793 h 1 a 0.5,0.5 0 0 0 0,-1 h -1 a 0.5,0.5 0 0 0 0,1 z m 10,0 h 3.1 a 0.5,0.5 0 0 0 0,-1 h -3.1 a 0.5,0.5 0 0 0 0,1 z m -17,0 h 3 a 0.5,0.5 0 0 0 0,-1 h -3 a 0.5,0.5 0 0 0 0,1 z m -20,0 h 12 a 0.5,0.5 0 0 0 0,-1 h -12 a 0.5,0.5 0 0 0 0,1 z"
       inkscape:connector-curvature="0"
       style="fill:#eaeaee" />
    <path
       id="path26"
       d="M 77.937,214.941 H 39.95 a 1,1 0 1 1 0,-2 h 37.987 a 1,1 0 1 1 0,2 z"
       inkscape:connector-curvature="0"
       style="fill:#eaeaee" />
    <path
       id="path28"
       d="m 258.931,214.941 h -61.813 a 1,1 0 0 1 0,-2 h 61.813 a 1,1 0 0 1 0,2 z"
       inkscape:connector-curvature="0"
       style="fill:#eaeaee" />
    <ellipse
       id="ellipse34"
       ry="8.3059998"
       rx="54.673"
       cy="244.914"
       cx="143.502"
       style="fill:#eaeaee" />
    <path
       id="path36"
       d="m 223.695,147.595 a 8.557,8.557 0 0 0 -3.594,-1.658 v -0.084 a 5,5 0 0 0 -5.98,-5.15 36.839,36.839 0 0 0 -6.483,-9.3 83.918,83.918 0 0 0 -8.865,-9.925 5.554,5.554 0 0 0 -2.252,-1.3 c -7.134,-6.844 -21.832,-19.69 -32.3,-20.412 A 27.308,27.308 0 0 0 162.342,99.703 46.863,46.863 0 0 0 147.3,102.6 l -5.07,-1.386 a 5,5 0 0 0 -6.142,3.5 l -0.959,3.508 a 68.223,68.223 0 0 0 -7.774,5.252 l -2.026,-0.047 h -0.116 a 5,5 0 0 0 -5,4.884 l -0.042,1.8 a 45.3,45.3 0 0 0 -5.6,7.593 5,5 0 0 0 -2.508,5.313 c -1.868,5.441 -2.827,13.654 -2.855,24.468 -0.454,2.653 -1,5.24 -1.63,7.721 l -4.239,2.569 a 6.3,6.3 0 0 0 -2.122,8.645 l 1.5,2.469 q -0.366,0.757 -0.741,1.478 l -4,1.227 a 6.3,6.3 0 0 0 -4.171,7.866 l 0.59,1.923 q -0.5,0.569 -1.007,1.109 L 91.8,192.37 a 5.857,5.857 0 0 0 -0.5,-0.02 6.325,6.325 0 0 0 -6.268,5.8 l -0.113,1.431 c -2.725,2.033 -5.38,4.525 -5.38,9.073 0,6.507 10.219,10.526 13.578,11.847 a 68.529,68.529 0 0 0 24.074,4.751 q 0.549,0 1.093,-0.012 c 0.6,2.385 1.2,4.42 1.778,6.08 a 54.622,54.622 0 0 0 4.716,10.2 c 1.741,2.827 4.2,6.072 7.821,6.072 a 5.668,5.668 0 0 0 3.569,-1.267 c 1.74,-1.416 2.422,-3.057 2.477,-10.005 a 86.376,86.376 0 0 0 16.716,1.516 80.415,80.415 0 0 0 14.4,-1.446 c -0.21,6.755 0.477,8.474 2.273,9.935 a 5.668,5.668 0 0 0 3.568,1.267 c 5.627,0 9.914,-8.85 12.52,-16.273 0.379,-1.079 0.76,-2.326 1.133,-3.705 h -0.008 c 1.555,-5.314 12.415,-46.933 15.771,-59.81 l 9.2,0.076 h 0.041 q 0.235,0 0.47,-0.022 a 13.639,13.639 0 0 0 8.795,-4.994 l 0.014,0.011 c 4.448,-5.667 4.514,-11.806 0.157,-15.28 z"
       inkscape:connector-curvature="0"
       style="fill:#ffffff" />
    <g
       id="g50"
       style="fill:url(#linearGradient957)">
      <path
         id="path38"
         d="m 121.625,218.616 c -4.1,-12.832 -7.76,-39.924 -7.746,-61.081 a 103.51,103.51 0 0 1 -2.321,10.573 l -5.961,3.612 a 1.3,1.3 0 0 0 -0.437,1.779 l 2.865,4.729 a 59.209,59.209 0 0 1 -2.977,5.993 l -5.939,1.823 a 1.3,1.3 0 0 0 -0.858,1.619 l 1.385,4.511 a 51.054,51.054 0 0 1 -4.661,5.155 l -3.9,-0.308 a 1.3,1.3 0 0 0 -1.394,1.19 l -0.294,3.726 c -3.236,2.342 -5.183,3.517 -5.183,6.38 0,4.117 20.661,13.327 37.645,11.314 -0.078,-0.339 -0.149,-0.677 -0.224,-1.015 z"
         inkscape:connector-curvature="0"
         style="fill:url(#linearGradient945)" />
      <path
         id="path40"
         d="m 186.98,169.883 -12.066,-1.734 c 0,0 10.339,13.394 7.748,33.691 -1,7.817 -6.478,19.433 -22.024,22.456 a 45.69,45.69 0 0 1 -27.449,-3.428 v 8.583 c 0,0 7.584,3.05 21.835,3.05 a 87.741,87.741 0 0 0 19.743,-2.7 c -0.4,5.8 -0.622,11.737 0.084,12.311 1.416,1.153 5.381,-4.714 8.214,-12.785 a 48.073,48.073 0 0 0 1.019,-3.337 c 1.268,-3.235 4.283,-12.279 4.623,-25.878 a 176.857,176.857 0 0 0 -1.727,-30.229 z"
         inkscape:connector-curvature="0"
         style="fill:url(#linearGradient947)" />
      <path
         id="path42"
         d="m 189.791,210.674 -4.457,-18.074 -8.517,-31.348 a 1.288,1.288 0 0 0 -1.554,-0.989 l -20.588,10.535 -2.94,0.327 -15.735,0.134 a 1.287,1.287 0 0 0 -1.177,1.782 l 6.114,14.682 4.476,18.806 a 1.278,1.278 0 0 0 0.146,0.349 l -1.614,14.85 a 1.287,1.287 0 0 0 1.3,1.426 l 18.745,-0.305 q 0.061,0 0.121,-0.008 a 1.288,1.288 0 0 0 0.151,-0.026 l 24.607,-10.476 a 1.287,1.287 0 0 0 0.926,-1.665 z"
         inkscape:connector-curvature="0"
         style="fill:url(#linearGradient949)" />
      <path
         id="path44"
         d="m 139.025,177.647 a 1.384,1.384 0 0 0 0.773,-1.1 1.407,1.407 0 0 0 -1.269,-1.533 c 0,0 -1.257,-0.638 -4.768,-0.72 a 7.635,7.635 0 0 0 -5.773,2.53 75.369,75.369 0 0 1 -13.532,-5.021 2.5001554,2.5001554 0 0 0 -2.225,4.478 76.1,76.1 0 0 0 15.616,5.619 c 1.4,1.485 3.989,2.07 5.679,2.241 0.1,0.031 5.754,0.357 7.31,-3.608 0.474,-1.206 -0.654,-2.449 -1.811,-2.886 z"
         inkscape:connector-curvature="0"
         style="fill:url(#linearGradient951)" />
      <path
         id="path46"
         d="m 212.017,152.78 c 2.378,-2.584 6.425,-3.047 8.227,-1.609 2.856,2.278 0.577,6.3 -0.976,8.274 -0.044,0.09 -3.736,4.39 -7.671,2.758 -1.2,-0.5 -1.309,-2.171 -0.821,-3.307 a 1.384,1.384 0 0 1 -1.327,-0.206 1.407,1.407 0 0 1 -0.223,-1.978 c 0,0 0.413,-1.348 2.791,-3.932 z"
         inkscape:connector-curvature="0"
         style="fill:url(#linearGradient953)" />
      <path
         id="path48"
         d="m 210.657,147.674 a 12.766,12.766 0 0 0 -0.357,-2.321 c -1.084,-4.224 -4.233,-8.285 -6.851,-11.094 a 78.307,78.307 0 0 0 -8.425,-9.468 0.648,0.648 0 0 0 -0.887,0.944 80.955,80.955 0 0 1 7.823,8.7 c 1.579,2.767 3.417,6.488 3.862,9.489 a 17.1,17.1 0 0 1 -1.055,7.18 z m -56.427,14.1 a 1.3,1.3 0 0 0 0.514,1.758 c 0.142,0.078 2.046,1.108 5.194,2.412 l 2.974,-1.612 a 63.892,63.892 0 0 1 -6.924,-3.073 1.3,1.3 0 0 0 -1.758,0.517 z"
         inkscape:connector-curvature="0"
         style="fill:url(#linearGradient955)" />
    </g>
    <g
       id="g56"
       style="fill:#f9f9fa">
      <path
         id="path52"
         d="m 164.107,222.841 q -0.06,0.007 -0.121,0.008 l -18.745,0.305 a 1.287,1.287 0 0 1 -1.3,-1.426 l 1.614,-14.85 a 1.28,1.28 0 0 1 -0.146,-0.349 l -4.476,-18.806 -2.024,-4.861 a 9.694,9.694 0 0 1 -5.383,1.28 c -1.69,-0.17 -4.282,-0.756 -5.679,-2.241 a 70.415,70.415 0 0 1 -13.1,-4.449 c 1.326,16.092 3.99,32.149 6.873,41.164 a 93.749,93.749 0 0 0 2.817,10.711 c 2.833,8.071 6.815,13.938 8.231,12.785 0.67,-0.545 0.705,-6.511 0.557,-12.645 l -0.042,-0.016 v -8.583 a 45.69,45.69 0 0 0 27.449,3.428 29.062,29.062 0 0 0 11.749,-4.94 l -8.127,3.46 a 1.29,1.29 0 0 1 -0.147,0.025 z"
         inkscape:connector-curvature="0" />
      <path
         id="path54"
         d="m 218.386,185.448 c -0.284,-0.616 -4.741,-17.387 -4.741,-17.387 l 0.274,-5.519 a 4.792,4.792 0 0 1 -2.322,-0.339 c -1.2,-0.5 -1.309,-2.171 -0.821,-3.307 a 1.384,1.384 0 0 1 -1.328,-0.206 1.407,1.407 0 0 1 -0.223,-1.978 c 0,0 0.413,-1.348 2.791,-3.932 a 7.392,7.392 0 0 1 2.474,-1.729 l 0.287,-5.78 -10.011,5.837 a 17.1,17.1 0 0 0 1.055,-7.18 c -0.445,-3 -2.283,-6.722 -3.862,-9.489 a 80.955,80.955 0 0 0 -7.823,-8.7 0.648,0.648 0 0 1 -0.028,-0.915 c 0,0 0.011,-0.006 0.015,-0.011 -10.105,-9.943 -22.875,-19.853 -30.577,-20.384 -4.5,-0.311 -10.323,0.8 -16.37,3.082 l -6.6,-1.805 -1.511,5.524 a 63.4,63.4 0 0 0 -10.33,6.958 l -3.858,-0.09 -0.086,3.719 a 40.259,40.259 0 0 0 -7.075,9.61 l -1.076,0.336 0.36,1.137 c -3.164,7.31 -3.661,22.679 -2.656,38.859 0.037,0.016 0.076,0.024 0.113,0.043 a 75.369,75.369 0 0 0 13.532,5.021 6.434,6.434 0 0 1 0.467,-0.48 c 0.065,-0.061 0.135,-0.118 0.2,-0.177 0.1,-0.088 0.2,-0.175 0.314,-0.259 l 0.3,-0.218 a 7.807,7.807 0 0 1 0.651,-0.406 c 0.045,-0.025 0.091,-0.048 0.137,-0.072 a 7.522,7.522 0 0 1 3.707,-0.919 c 0.615,0.014 1.137,0.049 1.619,0.092 l -0.56,-1.346 A 1.287,1.287 0 0 1 136,171.259 l 15.739,-0.139 2.94,-0.327 20.588,-10.535 a 1.287,1.287 0 0 1 1.554,0.989 l 8.517,31.348 4.457,18.078 a 1.287,1.287 0 0 1 -0.926,1.665 l -24.607,10.476 a 1.29,1.29 0 0 1 -0.151,0.026 q -0.06,0.007 -0.121,0.008 l -18.745,0.305 a 1.287,1.287 0 0 1 -1.3,-1.426 l 1.614,-14.85 a 1.28,1.28 0 0 1 -0.146,-0.349 l -4.476,-18.806 -2.024,-4.861 a 7.222,7.222 0 0 1 -1.957,0.882 l 1.244,2.643 4.883,18.667 -1.442,20.018 22.316,0.754 28.2,-12.809 22.4,-5.773 12.27,-10 c 0,0 -8.157,-11.179 -8.441,-11.795 z m -58.447,-19.5 c -3.153,-1.305 -5.053,-2.334 -5.2,-2.412 a 1.3,1.3 0 0 1 1.244,-2.273 64.081,64.081 0 0 0 6.926,3.071 z"
         inkscape:connector-curvature="0" />
    </g>
    <path
       id="path58"
       d="m 148.2,151.572 a 1,1 0 0 0 -0.969,-0.513 l -5.848,0.544 a 1,1 0 0 0 -0.518,1.788 l 3.4,2.625 a 1,1 0 0 0 0.611,0.208 1.023,1.023 0 0 0 0.128,-0.008 1,1 0 0 0 0.664,-0.381 l 2.444,-3.169 a 1,1 0 0 0 0.088,-1.094 z"
       inkscape:connector-curvature="0"
       style="fill:#ffffff" />
    <g
       id="g64"
       style="fill:url(#linearGradient963)">
      <path
         id="path60"
         d="m 215.942,188.189 a 0.5,0.5 0 0 0 -0.643,-0.294 c -0.657,0.244 -6.829,2.359 -9.226,3.179 a 0.485,0.485 0 0 0 -0.129,0.02 l -0.223,0.082 -0.3,-0.533 -4.132,-16.317 c 3.722,-1.631 9.422,-4.082 10,-4.2 a 0.5,0.5 0 0 0 0.43,-0.551 0.507,0.507 0 0 0 -0.552,-0.442 c -0.612,0.068 -7.152,2.91 -10.007,4.159 l -0.978,-16.222 a 0.506,0.506 0 0 0 -0.529,-0.469 0.5,0.5 0 0 0 -0.469,0.529 l 1.027,16.881 a 0.482,0.482 0 0 0 0.005,0.087 v 0.063 l 4.244,16.8 a 0.5,0.5 0 0 0 0.048,0.121 l 0.252,0.452 -14.371,5.266 a 0.5,0.5 0 1 0 0.345,0.938 l 14.53,-5.331 7.075,12.687 a 0.5,0.5 0 1 0 0.873,-0.487 l -6.987,-12.529 c 2.259,-0.773 8.727,-2.988 9.423,-3.247 a 0.5,0.5 0 0 0 0.294,-0.642 z m -17.866,-13.124 a 0.5,0.5 0 0 0 -0.645,-0.29 l -12.685,4.811 a 0.5,0.5 0 0 0 0.177,0.967 0.49,0.49 0 0 0 0.177,-0.033 l 12.685,-4.811 a 0.5,0.5 0 0 0 0.29,-0.644 z"
         inkscape:connector-curvature="0"
         style="fill:url(#linearGradient959)" />
      <path
         id="path62"
         d="m 177.573,181.528 a 1.031,1.031 0 1 0 1.081,0.668 1.036,1.036 0 0 0 -1.081,-0.668 z"
         inkscape:connector-curvature="0"
         style="fill:url(#linearGradient961)" />
    </g>
    <path
       id="path66"
       d="m 186.537,198.867 a 0.5,0.5 0 0 0 -0.634,-0.312 l -22.81,7.758 -0.215,-2.424 -3.513,-18.32 22.327,-4.386 a 0.5,0.5 0 0 0 -0.192,-0.981 l -22.373,4.4 -4.2,-13.34 a 0.500029,0.500029 0 0 0 -0.954,0.3 l 4.153,13.167 -15.205,1.277 a 0.50044081,0.50044081 0 0 0 0.042,1 h 0.042 l 15.376,-1.294 3.513,18.32 0.214,2.418 c -3.146,-0.116 -12.594,-0.432 -13.583,-0.117 a 0.5,0.5 0 0 0 -0.321,0.621 0.506,0.506 0 0 0 0.623,0.333 c 0.734,-0.214 8.379,-0.017 13.371,0.167 l 1.382,15.6 a 0.5,0.5 0 0 0 0.5,0.456 h 0.044 a 0.5,0.5 0 0 0 0.454,-0.542 l -1.386,-15.624 23.041,-7.837 a 0.5,0.5 0 0 0 0.304,-0.64 z"
       inkscape:connector-curvature="0"
       style="fill:#f9f9fa" />
    <g
       id="g94"
       style="fill:url(#linearGradient991)">
      <path
         id="path68"
         d="m 158.845,166.591 -3.592,-1.575 a 1,1 0 0 1 0.8,-1.832 l 4.854,2.129 z"
         inkscape:connector-curvature="0"
         style="fill:url(#linearGradient965)" />
      <path
         id="path70"
         d="m 151.812,151.976 a 11.582,11.582 0 0 0 -15.092,1.077 1.0000312,1.0000312 0 0 0 1.387,1.441 10.932,10.932 0 0 1 1.693,-1.238 c 1.011,1.259 2.852,3.273 4.438,3.474 a 1.779,1.779 0 0 0 0.228,0.014 c 1.905,0 3.843,-2.924 4.537,-4.082 a 11.155,11.155 0 0 1 1.621,0.922 1,1 0 0 0 1.189,-1.608 z m -7.448,3.762 c -1.113,-0.141 -2.654,-1.735 -3.671,-2.971 a 9.546,9.546 0 0 1 4.815,-1.067 9.091,9.091 0 0 1 2.56,0.576 c -0.968,1.589 -2.592,3.611 -3.705,3.461 z"
         inkscape:connector-curvature="0"
         style="fill:url(#linearGradient967)" />
      <path
         id="path72"
         d="m 195.7,141.2 a 5.614,5.614 0 0 0 -9.187,0 1.0003481,1.0003481 0 1 0 1.679,1.088 3.7,3.7 0 0 1 2.915,-1.475 3.648,3.648 0 0 1 2.918,1.48 1.0000342,1.0000342 0 0 0 1.675,-1.093 z"
         inkscape:connector-curvature="0"
         style="fill:url(#linearGradient969)" />
      <path
         id="path74"
         d="m 155.081,127.311 a 1,1 0 0 0 1.383,-0.28 3.618,3.618 0 0 1 5.838,0 1.0000342,1.0000342 0 0 0 1.675,-1.093 5.614,5.614 0 0 0 -9.187,0 1,1 0 0 0 0.291,1.373 z"
         inkscape:connector-curvature="0"
         style="fill:url(#linearGradient971)" />
      <path
         id="path76"
         d="m 189.934,134.871 c 0,0.034 -0.01,0.066 -0.01,0.1 v 2.844 a 6.008,6.008 0 0 1 2.784,0.078 v -2.922 a 1.378,1.378 0 0 0 -0.023,-0.227 5.846,5.846 0 0 0 2.993,-2.135 1.0015638,1.0015638 0 0 0 -1.678,-1.094 3.617,3.617 0 0 1 -5.838,0 1,1 0 0 0 -1.674,1.094 5.755,5.755 0 0 0 3.446,2.262 z"
         inkscape:connector-curvature="0"
         style="fill:url(#linearGradient973)" />
      <path
         id="path78"
         d="m 158.008,134.971 v 3.152 a 5.941,5.941 0 0 1 2.781,-0.038 v -3.114 a 1.392,1.392 0 1 0 -2.784,0 z"
         inkscape:connector-curvature="0"
         style="fill:url(#linearGradient975)" />
      <path
         id="path80"
         d="m 159.4,139.021 a 5.674,5.674 0 0 0 -4.593,2.387 1,1 0 0 0 1.674,1.094 3.618,3.618 0 0 1 5.838,0 1.0000342,1.0000342 0 0 0 1.675,-1.093 5.674,5.674 0 0 0 -4.594,-2.388 z"
         inkscape:connector-curvature="0"
         style="fill:url(#linearGradient977)" />
      <path
         id="path82"
         d="m 180.388,181.389 a 2.938,2.938 0 1 0 -4.66,3.254 4.326,4.326 0 0 0 0.765,0.557 l 2.4,1.8 a 0.562,0.562 0 0 0 0.531,0.077 h 0.008 a 0.564,0.564 0 0 0 0.35,-0.418 l 0.577,-3 a 3.9,3.9 0 0 0 0.029,-2.27 z m -2.344,2.132 a 1.031,1.031 0 1 1 0.61,-1.325 1.034,1.034 0 0 1 -0.61,1.325 z"
         inkscape:connector-curvature="0"
         style="fill:url(#linearGradient979)" />
      <path
         id="path84"
         d="m 212.864,169.173 a 0.64,0.64 0 0 0 -0.9,-0.158 l -6.583,4.6 -6.6,4.16 -0.891,0.437 -6.69,-16.391 -6.419,2.481 -1.271,-5.447 a 0.64302799,0.64302799 0 1 0 -1.252,0.294 l 1.315,5.621 -3.806,1.471 v 0.01 l -19.531,7.538 3.908,11.6 -2.937,1.966 -7.657,3.829 -11.434,0.845 a 0.8,0.8 0 0 0 -0.1,0.031 l 0.3,1.246 11.461,-0.848 0.127,-0.01 7.955,-3.983 2.715,-1.815 8.963,26.609 13.988,-4.649 -0.86,-1.86 3.448,-1.219 1.248,-0.441 5.962,3.956 a 0.64331738,0.64331738 0 1 0 0.71,-1.073 l -5.168,-3.415 0.03,-0.01 -1.152,-2.5 13.594,-5.606 -6.957,-17.044 1.032,-0.505 6.682,-4.212 6.609,-4.621 a 0.642,0.642 0 0 0 0.161,-0.887 z m -9.2,26.575 -13.647,5.629 0.785,1.7 -2.343,-2.449 -1.288,-1.346 -4.425,-3.346 -2.546,-2.936 -0.376,-4.707 a 1.748,1.748 0 0 1 -1.294,-0.042 l 0.421,5.273 2.862,3.309 4.5,3.41 3.112,3.263 0.648,0.68 -0.228,0.081 -0.146,0.052 -4.8,1.7 0.847,1.836 -11.4,3.79 -8.665,-25.724 1.41,-0.943 5.921,0.554 2.9,2.118 1.361,-0.251 -1.479,-1.1 a 5.89,5.89 0 0 1 -0.9,-0.663 4.206,4.206 0 0 1 -0.783,-0.893 l -0.624,-0.456 -6.729,-0.628 -1.5,1 -3.4,-10.1 19.632,-7.577 v -0.01 l 2.388,-0.923 0.438,1.874 0.528,4.731 0.565,3.225 -1,2.954 -2.623,1.281 -0.4,0.374 a 4.217,4.217 0 0 1 0.218,0.466 3.835,3.835 0 0 1 0.2,0.87 l 0.634,-0.6 3.021,-1.474 1.275,-3.774 -0.616,-3.508 -0.536,-4.767 -0.5,-2.123 5.41,-2.091 6.246,15.3 -10.983,5.386 -4.378,1.031 -0.267,1.386 4.4,-1.038 0.607,-0.143 11.1,-5.432 z"
         inkscape:connector-curvature="0"
         style="fill:url(#linearGradient981)" />
      <path
         id="path86"
         d="m 211.383,147.927 2.9,-1.77 0.039,5.23 a 0.5,0.5 0 0 0 0.5,0.5 0.5,0.5 0 0 0 0.5,-0.5 l -0.046,-6.113 a 0.5,0.5 0 0 0 -0.76,-0.423 l -3.655,2.229 a 0.50018921,0.50018921 0 0 0 0.521,0.854 z m 15.845,49.026 -8.383,-11.723 -4.7,-17.252 -0.32,-5.243 a 0.51,0.51 0 0 0 -0.529,-0.469 0.5,0.5 0 0 0 -0.469,0.529 l 0.323,5.294 a 0.5,0.5 0 0 0 0.017,0.1 l 4.733,17.391 a 0.5,0.5 0 0 0 0.076,0.16 l 8.163,11.414 -11.821,9.633 -22.291,5.745 c -0.015,0 -0.026,0.014 -0.04,0.02 -0.014,0.006 -0.028,0 -0.041,0.01 l -28.095,12.761 -21.68,-0.732 1.4,-19.5 a 0.506,0.506 0 0 0 -0.015,-0.163 L 138.68,186.26 a 0.537,0.537 0 0 0 -0.041,-0.1 L 137.1,183.2 a 0.50028442,0.50028442 0 0 0 -0.887,0.463 l 1.515,2.9 4.848,18.532 -1.435,19.936 a 0.5,0.5 0 0 0 0.481,0.536 l 22.316,0.754 h 0.017 a 0.5,0.5 0 0 0 0.207,-0.045 l 28.159,-12.79 22.358,-5.762 a 0.505,0.505 0 0 0 0.191,-0.1 l 12.27,-10 a 0.5,0.5 0 0 0 0.088,-0.671 z m -96.2,-26.9 23.165,-0.486 a 0.5,0.5 0 0 0 0.228,-0.061 l 22.133,-12 14.9,-1.49 h 0.011 l 7.36,-0.909 a 0.5,0.5 0 0 0 0.187,-0.062 l 8.711,-4.962 a 0.50128859,0.50128859 0 1 0 -0.5,-0.869 l -8.624,4.913 -7.249,0.9 -15,1.5 a 0.5,0.5 0 0 0 -0.188,0.058 l -22.115,11.992 -23.782,0.5 a 0.5,0.5 0 0 0 -0.449,0.7 l 1.47,3.46 a 0.5,0.5 0 0 0 0.46,0.3 0.493,0.493 0 0 0 0.2,-0.04 0.5,0.5 0 0 0 0.265,-0.655 z"
         inkscape:connector-curvature="0"
         style="fill:url(#linearGradient983)" />
      <path
         id="path88"
         d="m 221.337,150.947 c -0.37,-0.407 -2.546,-2.481 -6.929,-0.472 a 1,1 0 0 0 0.832,1.818 c 3.251,-1.489 4.553,-0.074 4.594,-0.03 0.024,0.03 0.064,0.072 0.091,0.1 0.076,0.074 1.82,1.86 -0.674,5.575 -2.65,3.945 -5.713,3.84 -5.862,3.832 a 1.0000236,1.0000236 0 0 0 -0.142,1.995 c 0.019,0 0.085,0.006 0.193,0.006 0.877,0 4.494,-0.285 7.471,-4.717 3.289,-4.902 0.831,-7.7 0.426,-8.107 z m -9.037,2.245 a 0.5,0.5 0 1 0 -0.567,-0.823 c -0.354,0.244 -3.456,2.447 -3.149,4.537 0.13,0.889 0.826,1.577 2.071,2.049 v 2.479 a 0.5,0.5 0 0 0 1,0 V 158.6 a 0.5,0.5 0 0 0 -0.347,-0.476 c -1.069,-0.345 -1.652,-0.8 -1.735,-1.363 -0.183,-1.25 1.962,-3.041 2.727,-3.569 z"
         inkscape:connector-curvature="0"
         style="fill:url(#linearGradient985)" />
      <path
         id="path90"
         d="m 141.324,179.661 a 1,1 0 0 0 -1.361,0.384 5.382,5.382 0 0 1 -3.357,2.765 c -3.375,0.921 -7.389,-1.383 -7.43,-1.407 a 1.043,1.043 0 0 0 -0.494,-0.137 23.844,23.844 0 0 1 -5.361,-1.266 94.816,94.816 0 0 1 -10.046,-4.156 1,1 0 1 0 -0.87,1.8 94.837,94.837 0 0 0 10.318,4.263 28.613,28.613 0 0 0 5.662,1.344 14.825,14.825 0 0 0 6.505,1.775 8.516,8.516 0 0 0 2.233,-0.285 7.38,7.38 0 0 0 4.585,-3.72 1,1 0 0 0 -0.384,-1.36 z m -13.077,-2.407 c 1.673,-1.014 6.485,-3.407 8.631,-2.308 a 2.26,2.26 0 0 1 1.111,2.027 0.5,0.5 0 0 0 0.125,0.292 l 1.333,1.5 a 0.5,0.5 0 1 0 0.747,-0.664 l -1.225,-1.378 a 3.151,3.151 0 0 0 -1.637,-2.667 c -3.076,-1.572 -9.338,2.182 -9.6,2.343 a 0.50009649,0.50009649 0 0 0 0.519,0.855 z"
         inkscape:connector-curvature="0"
         style="fill:url(#linearGradient987)" />
      <path
         id="path92"
         d="m 187.079,215.322 a 62.9,62.9 0 0 1 -2.99,10.65 48.268,48.268 0 0 1 -1.024,3.355 c -2.593,7.389 -6.135,12.929 -7.8,12.929 a 0.634,0.634 0 0 1 -0.412,-0.145 c -0.706,-0.575 -0.484,-6.506 -0.084,-12.311 a 87.741,87.741 0 0 1 -19.743,2.7 c -11.364,0 -18.463,-1.931 -20.878,-2.715 l -0.237,-5.569 a 0.50046204,0.50046204 0 0 0 -1,0.043 l 0.386,9.076 c 0.038,4.572 -0.1,8.349 -0.622,8.777 a 0.635,0.635 0 0 1 -0.412,0.145 c -1.67,0 -5.226,-5.541 -7.819,-12.929 a 88.238,88.238 0 0 1 -2.593,-9.678 v -0.018 c -2.557,-10.229 -4.4,-21.578 -4.427,-21.725 a 0.5,0.5 0 0 0 -0.984,0.174 c 0.025,0.144 1.891,11.541 4.373,21.641 a 43.511,43.511 0 0 1 -3.955,0.194 c -15.782,0 -32.651,-7.878 -32.651,-11.6 0,-2.862 1.947,-4.038 5.183,-6.379 l 0.294,-3.727 a 1.3,1.3 0 0 1 1.284,-1.194 h 0.109 l 2.658,0.209 c -0.932,1 -1.8,1.954 -1.856,2.019 a 0.50016622,0.50016622 0 0 0 0.741,0.672 c 0.02,-0.022 1.7,-1.876 2.915,-3.143 a 51.528,51.528 0 0 0 4.106,-4.6 l -1.385,-4.51 a 1.3,1.3 0 0 1 0.858,-1.619 l 4.541,-1.395 -1.472,2.6 a 0.50017622,0.50017622 0 0 0 0.871,0.492 l 2,-3.526 a 59.168,59.168 0 0 0 2.977,-5.992 L 105.16,173.5 a 1.3,1.3 0 0 1 0.436,-1.78 l 4.685,-2.84 -0.841,2.8 a 0.5,0.5 0 0 0 0.335,0.623 0.506,0.506 0 0 0 0.144,0.021 0.5,0.5 0 0 0 0.479,-0.356 l 1.159,-3.861 a 103.318,103.318 0 0 0 2.315,-10.528 c 0,-9.635 0.771,-18.028 2.6,-23.3 l 0.629,1.572 a 0.50017047,0.50017047 0 0 0 0.929,-0.371 l -1.036,-2.59 -0.354,-1.132 1.076,-0.336 a 39.516,39.516 0 0 1 6.206,-8.693 17.58,17.58 0 0 0 0.293,2.241 0.5,0.5 0 0 0 0.472,0.34 0.5,0.5 0 0 0 0.477,-0.656 c -0.081,-0.25 -0.222,-1.675 -0.361,-3.33 l 0.075,-3.231 3.858,0.09 a 63.4,63.4 0 0 1 10.33,-6.958 l 1.511,-5.524 5.175,1.415 -2.448,1.1 a 0.5,0.5 0 1 0 0.409,0.912 l 3.465,-1.619 a 43.83,43.83 0 0 1 14.834,-3.133 q 0.79,0 1.535,0.051 c 7.7,0.531 20.471,10.442 30.576,20.384 a 0.65,0.65 0 0 1 0.461,-0.192 0.635,0.635 0 0 1 0.439,0.175 78.316,78.316 0 0 1 8.426,9.469 c 2.618,2.808 5.766,6.87 6.851,11.093 a 12.766,12.766 0 0 1 0.357,2.321 l 1.9,-1.109 a 14.088,14.088 0 0 0 -0.321,-1.71 c -1.189,-4.633 -4.577,-9 -7.244,-11.873 a 80.227,80.227 0 0 0 -8.6,-9.651 2.616,2.616 0 0 0 -1.645,-0.711 132.405,132.405 0 0 0 -15.667,-13.173 c -6.275,-4.386 -11.455,-6.747 -15.4,-7.019 -0.538,-0.037 -1.1,-0.056 -1.673,-0.056 a 44.826,44.826 0 0 0 -14.927,3.034 l -5.98,-1.635 a 2,2 0 0 0 -2.457,1.4 l -1.287,4.707 a 65.217,65.217 0 0 0 -9.321,6.285 l -3.115,-0.072 h -0.047 a 2,2 0 0 0 -2,1.953 l -0.068,2.94 a 42.293,42.293 0 0 0 -6.474,8.772 l -0.291,0.091 a 2,2 0 0 0 -1.313,2.506 l 0.143,0.457 c -1.979,5.088 -2.989,13.356 -3,24.6 a 102.64,102.64 0 0 1 -2.034,9.4 l -5.279,3.2 a 3.3,3.3 0 0 0 -1.111,4.526 l 2.326,3.838 a 57.63,57.63 0 0 1 -2.077,4.169 l -5.176,1.59 a 3.3,3.3 0 0 0 -2.183,4.118 l 1.073,3.494 a 49.486,49.486 0 0 1 -3.185,3.519 l -3,-0.236 a 3.17,3.17 0 0 0 -0.266,-0.011 3.31,3.31 0 0 0 -3.278,3.035 l -0.221,2.8 c -2.946,2.116 -5.262,3.81 -5.262,7.461 0,3.883 7.315,7.34 11.675,9.055 a 65.414,65.414 0 0 0 22.976,4.543 46.33,46.33 0 0 0 3.429,-0.125 80.231,80.231 0 0 0 2.274,8.2 c 0.513,1.46 5.14,14.267 9.706,14.267 a 2.624,2.624 0 0 0 1.675,-0.594 c 0.828,-0.674 1.5,-1.218 1.349,-11.451 a 76.223,76.223 0 0 0 19.738,2.288 85.8,85.8 0 0 0 17.577,-2.149 c -0.579,10.036 0.152,10.631 0.988,11.312 a 2.623,2.623 0 0 0 1.674,0.594 c 4.55,0 9.177,-12.807 9.689,-14.267 0.345,-0.983 0.694,-2.123 1.039,-3.39 a 67.385,67.385 0 0 0 3.306,-12.285 z"
         inkscape:connector-curvature="0"
         style="fill:url(#linearGradient989)" />
    </g>
  </g>
</svg>
